<svg xmlns="http://www.w3.org/2000/svg" viewBox="0 0 25 25"><defs><style>.cls-1{fill:#231f20;}</style></defs><g id="office_chair" data-name="office chair"><path class="cls-1" d="M22.5,12h-1a.47.47,0,0,0-.35.15l-.7.7A1.47,1.47,0,0,0,20,13.92l0,1.43A1.8,1.8,0,0,0,18.91,15H13V14h4.55a2.36,2.36,0,0,0,1.8-.85,2.51,2.51,0,0,0,.54-2.05L18.49,3a2.4,2.4,0,0,0-2.34-2H8.85A2.4,2.4,0,0,0,6.51,3L5.11,11.1a2.51,2.51,0,0,0,.54,2.05,2.36,2.36,0,0,0,1.8.85H12v1H6.14A1.82,1.82,0,0,0,5,15.43V13.92a1.56,1.56,0,0,0-.45-1.07l-.71-.7A.47.47,0,0,0,3.46,12h-1a.5.5,0,0,0,0,1h.79l.56.55a.59.59,0,0,1,.16.38L4,17.2a.46.46,0,0,0,0,.2,1.31,1.31,0,0,0,.22.87A1.75,1.75,0,0,0,5.74,19H12v2H6.45A1.39,1.39,0,0,0,5,22.31V23.5a.5.5,0,0,0,1,0V22.31c0-.16.21-.31.45-.31h12.1c.24,0,.45.15.45.31V23.5a.5.5,0,0,0,1,0V22.31A1.39,1.39,0,0,0,18.55,21H13V19h6.32a1.72,1.72,0,0,0,1.46-.73A1.3,1.3,0,0,0,21,17.14l0-3.21a.54.54,0,0,1,.15-.38l.56-.55h.79a.5.5,0,0,0,0-1Zm-15,1a1.31,1.31,0,0,1-1-.49,1.49,1.49,0,0,1-.33-1.24L7.49,3.2A1.42,1.42,0,0,1,8.85,2h7.3a1.42,1.42,0,0,1,1.36,1.2l1.4,8.07a1.49,1.49,0,0,1-.33,1.24,1.31,1.31,0,0,1-1,.49ZM20,17.71a.76.76,0,0,1-.64.29H5.74a.76.76,0,0,1-.64-.29.36.36,0,0,1,0-.33l.41-1A.71.71,0,0,1,6.14,16H18.91a.72.72,0,0,1,.68.37l.41,1A.36.36,0,0,1,20,17.71Z"/></g></svg>